<mxfile host="app.diagrams.net" modified="2022-02-16T16:21:23.628Z" agent="5.0 (Windows NT 10.0; Win64; x64) AppleWebKit/537.36 (KHTML, like Gecko) Chrome/98.0.4758.102 Safari/537.36" etag="IgeXXDfn7d2yDAF0TTos" version="16.5.6" type="github">
  <diagram id="JSSCa7bkJR9PmikTlj4o" name="Page-1">
    <mxGraphModel dx="1888" dy="547" grid="1" gridSize="10" guides="1" tooltips="1" connect="1" arrows="1" fold="1" page="1" pageScale="1" pageWidth="850" pageHeight="1100" math="0" shadow="0">
      <root>
        <mxCell id="0" />
        <mxCell id="1" parent="0" />
        <mxCell id="2QfLTyrHY2M2lkCo5Ux--4" value="" style="endArrow=none;dashed=1;html=1;rounded=0;" parent="1" edge="1">
          <mxGeometry width="50" height="50" relative="1" as="geometry">
            <mxPoint x="439.5" y="410" as="sourcePoint" />
            <mxPoint x="439.5" y="90" as="targetPoint" />
          </mxGeometry>
        </mxCell>
        <mxCell id="2QfLTyrHY2M2lkCo5Ux--1" value="Internet Host&lt;br&gt;IP: 10.10.0.40" style="rounded=0;whiteSpace=wrap;html=1;fillColor=#f8cecc;strokeColor=#b85450;" parent="1" vertex="1">
          <mxGeometry x="-60" y="215" width="120" height="60" as="geometry" />
        </mxCell>
        <mxCell id="2QfLTyrHY2M2lkCo5Ux--2" value="Tools" style="text;html=1;align=center;verticalAlign=middle;resizable=0;points=[];autosize=1;strokeColor=none;fillColor=none;" parent="1" vertex="1">
          <mxGeometry x="-20" y="180" width="40" height="20" as="geometry" />
        </mxCell>
        <mxCell id="2QfLTyrHY2M2lkCo5Ux--3" value="T3: Atropia Pivot&lt;br&gt;Internal: 10.3.0.10&lt;br&gt;External: 10.50.29.96&lt;br&gt;Open Ports: 22" style="rounded=0;whiteSpace=wrap;html=1;fillColor=#f8cecc;strokeColor=#b85450;" parent="1" vertex="1">
          <mxGeometry x="380" y="210" width="120" height="70" as="geometry" />
        </mxCell>
        <mxCell id="2QfLTyrHY2M2lkCo5Ux--5" value="EXTERNAL" style="text;html=1;align=center;verticalAlign=middle;resizable=0;points=[];autosize=1;strokeColor=none;fillColor=none;" parent="1" vertex="1">
          <mxGeometry x="160" y="80" width="80" height="20" as="geometry" />
        </mxCell>
        <mxCell id="2QfLTyrHY2M2lkCo5Ux--6" value="INTERNAL" style="text;html=1;align=center;verticalAlign=middle;resizable=0;points=[];autosize=1;strokeColor=none;fillColor=none;" parent="1" vertex="1">
          <mxGeometry x="585" y="80" width="70" height="20" as="geometry" />
        </mxCell>
        <mxCell id="2QfLTyrHY2M2lkCo5Ux--7" value="T4: Pineland&lt;br&gt;10.50.21.23&lt;br&gt;Open Ports 22,23" style="rounded=0;whiteSpace=wrap;html=1;fillColor=#f8cecc;strokeColor=#b85450;" parent="1" vertex="1">
          <mxGeometry x="780" y="215" width="125" height="60" as="geometry" />
        </mxCell>
        <mxCell id="2QfLTyrHY2M2lkCo5Ux--8" value="Mohammad:&lt;br&gt;10.2.0.2" style="rounded=0;whiteSpace=wrap;html=1;fillColor=#f8cecc;strokeColor=#b85450;" parent="1" vertex="1">
          <mxGeometry x="1020" y="215" width="120" height="60" as="geometry" />
        </mxCell>
        <mxCell id="2QfLTyrHY2M2lkCo5Ux--11" value="Access" style="text;html=1;align=center;verticalAlign=middle;resizable=0;points=[];autosize=1;strokeColor=none;fillColor=none;" parent="1" vertex="1">
          <mxGeometry x="820" y="180" width="50" height="20" as="geometry" />
        </mxCell>
        <mxCell id="MnGtbzwlXuB-lsqd1GG1-1" value="" style="endArrow=none;html=1;rounded=0;exitX=1;exitY=0.5;exitDx=0;exitDy=0;entryX=0;entryY=0.5;entryDx=0;entryDy=0;" edge="1" parent="1" source="2QfLTyrHY2M2lkCo5Ux--1" target="2QfLTyrHY2M2lkCo5Ux--3">
          <mxGeometry width="50" height="50" relative="1" as="geometry">
            <mxPoint x="330" y="310" as="sourcePoint" />
            <mxPoint x="380" y="260" as="targetPoint" />
          </mxGeometry>
        </mxCell>
        <mxCell id="MnGtbzwlXuB-lsqd1GG1-2" value="" style="endArrow=none;html=1;rounded=0;exitX=0;exitY=0.5;exitDx=0;exitDy=0;entryX=1;entryY=0.5;entryDx=0;entryDy=0;" edge="1" parent="1" source="2QfLTyrHY2M2lkCo5Ux--7" target="2QfLTyrHY2M2lkCo5Ux--3">
          <mxGeometry width="50" height="50" relative="1" as="geometry">
            <mxPoint x="70" y="255" as="sourcePoint" />
            <mxPoint x="390" y="255" as="targetPoint" />
          </mxGeometry>
        </mxCell>
        <mxCell id="MnGtbzwlXuB-lsqd1GG1-3" value="" style="endArrow=none;html=1;rounded=0;entryX=1;entryY=0.5;entryDx=0;entryDy=0;" edge="1" parent="1" source="2QfLTyrHY2M2lkCo5Ux--8" target="2QfLTyrHY2M2lkCo5Ux--7">
          <mxGeometry width="50" height="50" relative="1" as="geometry">
            <mxPoint x="795" y="255" as="sourcePoint" />
            <mxPoint x="510" y="255" as="targetPoint" />
          </mxGeometry>
        </mxCell>
        <mxCell id="MnGtbzwlXuB-lsqd1GG1-4" value="Atlantica Pivot:&lt;br&gt;10.2.0.3" style="rounded=0;whiteSpace=wrap;html=1;fillColor=#f8cecc;strokeColor=#b85450;" vertex="1" parent="1">
          <mxGeometry x="1020" y="300" width="120" height="60" as="geometry" />
        </mxCell>
        <mxCell id="MnGtbzwlXuB-lsqd1GG1-5" value="Cortina:&lt;br&gt;10.3.0.1&lt;br&gt;Open Ports 21, 80" style="rounded=0;whiteSpace=wrap;html=1;fillColor=#f8cecc;strokeColor=#b85450;" vertex="1" parent="1">
          <mxGeometry x="560" y="350" width="120" height="60" as="geometry" />
        </mxCell>
        <mxCell id="MnGtbzwlXuB-lsqd1GG1-6" value="Victoria:&lt;br&gt;10.3.0.27&lt;br&gt;Open Ports 21, 80" style="rounded=0;whiteSpace=wrap;html=1;fillColor=#f8cecc;strokeColor=#b85450;" vertex="1" parent="1">
          <mxGeometry x="560" y="420" width="120" height="60" as="geometry" />
        </mxCell>
      </root>
    </mxGraphModel>
  </diagram>
</mxfile>
